%TF.GenerationSoftware,Altium Limited,Altium Designer,24.7.2 (38)*%
G04 Layer_Color=8388736*
%FSLAX43Y43*%
%MOMM*%
%TF.SameCoordinates,EABBE53E-55D9-4B33-9F5D-FE9000ABD613*%
%TF.FilePolarity,Negative*%
%TF.FileFunction,Soldermask,Top*%
%TF.Part,Single*%
G01*
G75*
%TA.AperFunction,SMDPad,CuDef*%
G04:AMPARAMS|DCode=10|XSize=1.55mm|YSize=0.95mm|CornerRadius=0.238mm|HoleSize=0mm|Usage=FLASHONLY|Rotation=0.000|XOffset=0mm|YOffset=0mm|HoleType=Round|Shape=RoundedRectangle|*
%AMROUNDEDRECTD10*
21,1,1.550,0.475,0,0,0.0*
21,1,1.075,0.950,0,0,0.0*
1,1,0.475,0.538,-0.238*
1,1,0.475,-0.538,-0.238*
1,1,0.475,-0.538,0.238*
1,1,0.475,0.538,0.238*
%
%ADD10ROUNDEDRECTD10*%
G04:AMPARAMS|DCode=11|XSize=1.55mm|YSize=0.6mm|CornerRadius=0.051mm|HoleSize=0mm|Usage=FLASHONLY|Rotation=270.000|XOffset=0mm|YOffset=0mm|HoleType=Round|Shape=RoundedRectangle|*
%AMROUNDEDRECTD11*
21,1,1.550,0.498,0,0,270.0*
21,1,1.448,0.600,0,0,270.0*
1,1,0.102,-0.249,-0.724*
1,1,0.102,-0.249,0.724*
1,1,0.102,0.249,0.724*
1,1,0.102,0.249,-0.724*
%
%ADD11ROUNDEDRECTD11*%
G04:AMPARAMS|DCode=12|XSize=1.05mm|YSize=1.1mm|CornerRadius=0.263mm|HoleSize=0mm|Usage=FLASHONLY|Rotation=0.000|XOffset=0mm|YOffset=0mm|HoleType=Round|Shape=RoundedRectangle|*
%AMROUNDEDRECTD12*
21,1,1.050,0.575,0,0,0.0*
21,1,0.525,1.100,0,0,0.0*
1,1,0.525,0.263,-0.288*
1,1,0.525,-0.263,-0.288*
1,1,0.525,-0.263,0.288*
1,1,0.525,0.263,0.288*
%
%ADD12ROUNDEDRECTD12*%
G04:AMPARAMS|DCode=13|XSize=1.4mm|YSize=1.2mm|CornerRadius=0.15mm|HoleSize=0mm|Usage=FLASHONLY|Rotation=90.000|XOffset=0mm|YOffset=0mm|HoleType=Round|Shape=RoundedRectangle|*
%AMROUNDEDRECTD13*
21,1,1.400,0.900,0,0,90.0*
21,1,1.100,1.200,0,0,90.0*
1,1,0.300,0.450,0.550*
1,1,0.300,0.450,-0.550*
1,1,0.300,-0.450,-0.550*
1,1,0.300,-0.450,0.550*
%
%ADD13ROUNDEDRECTD13*%
G04:AMPARAMS|DCode=14|XSize=1.55mm|YSize=0.95mm|CornerRadius=0.238mm|HoleSize=0mm|Usage=FLASHONLY|Rotation=270.000|XOffset=0mm|YOffset=0mm|HoleType=Round|Shape=RoundedRectangle|*
%AMROUNDEDRECTD14*
21,1,1.550,0.475,0,0,270.0*
21,1,1.075,0.950,0,0,270.0*
1,1,0.475,-0.238,-0.538*
1,1,0.475,-0.238,0.538*
1,1,0.475,0.238,0.538*
1,1,0.475,0.238,-0.538*
%
%ADD14ROUNDEDRECTD14*%
G04:AMPARAMS|DCode=15|XSize=1.9mm|YSize=1.4mm|CornerRadius=0.35mm|HoleSize=0mm|Usage=FLASHONLY|Rotation=90.000|XOffset=0mm|YOffset=0mm|HoleType=Round|Shape=RoundedRectangle|*
%AMROUNDEDRECTD15*
21,1,1.900,0.700,0,0,90.0*
21,1,1.200,1.400,0,0,90.0*
1,1,0.700,0.350,0.600*
1,1,0.700,0.350,-0.600*
1,1,0.700,-0.350,-0.600*
1,1,0.700,-0.350,0.600*
%
%ADD15ROUNDEDRECTD15*%
%ADD16R,5.700X5.632*%
%ADD17R,2.600X1.060*%
%ADD18O,1.750X0.600*%
%ADD19R,0.650X1.350*%
G04:AMPARAMS|DCode=20|XSize=1.05mm|YSize=1.1mm|CornerRadius=0.263mm|HoleSize=0mm|Usage=FLASHONLY|Rotation=270.000|XOffset=0mm|YOffset=0mm|HoleType=Round|Shape=RoundedRectangle|*
%AMROUNDEDRECTD20*
21,1,1.050,0.575,0,0,270.0*
21,1,0.525,1.100,0,0,270.0*
1,1,0.525,-0.288,-0.263*
1,1,0.525,-0.288,0.263*
1,1,0.525,0.288,0.263*
1,1,0.525,0.288,-0.263*
%
%ADD20ROUNDEDRECTD20*%
%ADD21R,1.956X2.261*%
%TA.AperFunction,ComponentPad*%
%ADD23C,1.530*%
%ADD24R,1.530X1.530*%
%ADD25C,1.508*%
%ADD26R,1.508X1.508*%
%ADD27C,2.100*%
%ADD28C,1.800*%
%ADD29R,1.800X1.800*%
%ADD30R,2.000X2.000*%
%ADD31C,2.000*%
%TA.AperFunction,ViaPad*%
%ADD32C,1.270*%
%ADD33C,0.800*%
D10*
X54331Y41201D02*
D03*
Y43551D02*
D03*
X46965Y17198D02*
D03*
Y19548D02*
D03*
D11*
X13612Y39150D02*
D03*
X12342D02*
D03*
X11072D02*
D03*
X9802D02*
D03*
Y44550D02*
D03*
X11072D02*
D03*
X12342D02*
D03*
X13612D02*
D03*
X13705Y21350D02*
D03*
X12435D02*
D03*
X11165D02*
D03*
X9895D02*
D03*
Y26750D02*
D03*
X11165D02*
D03*
X12435D02*
D03*
X13705D02*
D03*
D12*
X84811Y16330D02*
D03*
Y18130D02*
D03*
X15400Y21350D02*
D03*
Y23150D02*
D03*
Y39225D02*
D03*
Y41025D02*
D03*
X86732Y37920D02*
D03*
Y39720D02*
D03*
D13*
X82906Y25358D02*
D03*
X84906D02*
D03*
X14239Y29201D02*
D03*
X12239D02*
D03*
X8064D02*
D03*
X10064D02*
D03*
X83684Y35391D02*
D03*
X85684D02*
D03*
X74397Y35264D02*
D03*
X76397D02*
D03*
X81112D02*
D03*
X79112D02*
D03*
X51267Y41201D02*
D03*
X49267D02*
D03*
X81833Y13928D02*
D03*
X83833D02*
D03*
X79207D02*
D03*
X77207D02*
D03*
X86732Y45678D02*
D03*
X88732D02*
D03*
X54474Y37423D02*
D03*
X56474D02*
D03*
X8008Y46948D02*
D03*
X10008D02*
D03*
X8024Y49742D02*
D03*
X10024D02*
D03*
X14342D02*
D03*
X12342D02*
D03*
X14342Y46948D02*
D03*
X12342D02*
D03*
X8005Y31661D02*
D03*
X10005D02*
D03*
X14164D02*
D03*
X12164D02*
D03*
X14166Y36578D02*
D03*
X12166D02*
D03*
X14207Y34070D02*
D03*
X12207D02*
D03*
X8000D02*
D03*
X10000D02*
D03*
X7975Y36578D02*
D03*
X9975D02*
D03*
D14*
X105163Y43392D02*
D03*
X102813D02*
D03*
X105671Y22945D02*
D03*
X103321D02*
D03*
X43060Y29041D02*
D03*
X40710D02*
D03*
X40583Y18119D02*
D03*
X42933D02*
D03*
X63507Y24732D02*
D03*
X61157D02*
D03*
X63634Y34883D02*
D03*
X61284D02*
D03*
D15*
X43199Y25893D02*
D03*
Y21393D02*
D03*
X40699Y25893D02*
D03*
Y21393D02*
D03*
D16*
X98360Y32978D02*
D03*
X98487Y43392D02*
D03*
X98400Y22945D02*
D03*
X98454Y15071D02*
D03*
D17*
X91810Y30692D02*
D03*
Y35264D02*
D03*
X91937Y41106D02*
D03*
Y45678D02*
D03*
X91850Y20659D02*
D03*
Y25231D02*
D03*
X91904Y12785D02*
D03*
Y17357D02*
D03*
D18*
X49425Y34883D02*
D03*
Y33613D02*
D03*
Y32343D02*
D03*
Y31073D02*
D03*
Y29803D02*
D03*
Y28533D02*
D03*
Y27263D02*
D03*
Y25993D02*
D03*
Y24723D02*
D03*
Y23453D02*
D03*
Y22183D02*
D03*
Y20913D02*
D03*
Y19643D02*
D03*
Y18373D02*
D03*
X58475Y34883D02*
D03*
Y33613D02*
D03*
Y32343D02*
D03*
Y31073D02*
D03*
Y29803D02*
D03*
Y28533D02*
D03*
Y27263D02*
D03*
Y25993D02*
D03*
Y24723D02*
D03*
Y23453D02*
D03*
Y22183D02*
D03*
Y20913D02*
D03*
Y19643D02*
D03*
Y18373D02*
D03*
D19*
X77318Y43550D02*
D03*
X78588D02*
D03*
X79858D02*
D03*
X81128D02*
D03*
X82398D02*
D03*
X83668D02*
D03*
X84938D02*
D03*
Y37900D02*
D03*
X83668D02*
D03*
X82398D02*
D03*
X81128D02*
D03*
X79858D02*
D03*
X78588D02*
D03*
X77318D02*
D03*
X75413Y22056D02*
D03*
X76683D02*
D03*
X77953D02*
D03*
X79223D02*
D03*
X80493D02*
D03*
X81763D02*
D03*
X83033D02*
D03*
Y16406D02*
D03*
X81763D02*
D03*
X80493D02*
D03*
X79223D02*
D03*
X77953D02*
D03*
X76683D02*
D03*
X75413D02*
D03*
D20*
X72989Y25866D02*
D03*
X74789D02*
D03*
X76307D02*
D03*
X78107D02*
D03*
X79722Y46186D02*
D03*
X81522D02*
D03*
X78078D02*
D03*
X76278D02*
D03*
D21*
X73241Y29041D02*
D03*
X77585D02*
D03*
X76543Y49361D02*
D03*
X80887D02*
D03*
D23*
X99345Y56270D02*
D03*
X96805D02*
D03*
X94265D02*
D03*
X91725D02*
D03*
X101885D02*
D03*
X104425D02*
D03*
X106965D02*
D03*
X99345Y53730D02*
D03*
X96805D02*
D03*
X94265D02*
D03*
X101885D02*
D03*
X104425D02*
D03*
X106965D02*
D03*
D24*
X91725D02*
D03*
D25*
X99420Y5220D02*
D03*
Y7760D02*
D03*
X96880Y5220D02*
D03*
Y7760D02*
D03*
X94340Y5220D02*
D03*
Y7760D02*
D03*
X91800Y5220D02*
D03*
X107040D02*
D03*
Y7760D02*
D03*
X104500Y5220D02*
D03*
Y7760D02*
D03*
X101960Y5220D02*
D03*
Y7760D02*
D03*
X29470Y5220D02*
D03*
Y7760D02*
D03*
X26930Y5220D02*
D03*
Y7760D02*
D03*
X24390Y5220D02*
D03*
Y7760D02*
D03*
X21850Y5220D02*
D03*
X37090D02*
D03*
Y7760D02*
D03*
X34550Y5220D02*
D03*
Y7760D02*
D03*
X32010Y5220D02*
D03*
Y7760D02*
D03*
D26*
X91800D02*
D03*
X21850D02*
D03*
D27*
X116650Y15535D02*
D03*
Y24442D02*
D03*
Y33386D02*
D03*
Y42574D02*
D03*
X105004Y32978D02*
D03*
Y15071D02*
D03*
X24867Y33613D02*
D03*
Y29803D02*
D03*
X24894Y17103D02*
D03*
X24867Y42814D02*
D03*
X70428Y16406D02*
D03*
X72111Y37920D02*
D03*
X24894Y25893D02*
D03*
X24867Y38683D02*
D03*
D28*
X57600Y56175D02*
D03*
X55060D02*
D03*
X52520D02*
D03*
X49980D02*
D03*
X47440D02*
D03*
X44900D02*
D03*
X60140D02*
D03*
D29*
X42360D02*
D03*
D30*
X57431Y44626D02*
D03*
D31*
X63931D02*
D03*
X57431Y40126D02*
D03*
X63931D02*
D03*
D32*
X114450Y49425D02*
D03*
Y35425D02*
D03*
X117950Y28425D02*
D03*
X114450Y21425D02*
D03*
Y7425D02*
D03*
X107450Y49425D02*
D03*
X110950Y42425D02*
D03*
X107450Y35425D02*
D03*
X110950Y28425D02*
D03*
X107450Y21425D02*
D03*
X110950Y14425D02*
D03*
X100450Y49425D02*
D03*
X96950Y28425D02*
D03*
X89950Y42425D02*
D03*
Y28425D02*
D03*
Y14425D02*
D03*
X82950Y28425D02*
D03*
X72450Y49425D02*
D03*
X75950Y42425D02*
D03*
X72450Y35425D02*
D03*
X65450Y49425D02*
D03*
X68950Y42425D02*
D03*
X65450Y35425D02*
D03*
X68950Y28425D02*
D03*
X65450Y21425D02*
D03*
X58450Y49425D02*
D03*
X61950Y42425D02*
D03*
X51450Y35425D02*
D03*
X54950Y28425D02*
D03*
X51450Y21425D02*
D03*
X47950Y14425D02*
D03*
X37450Y49425D02*
D03*
X40950Y42425D02*
D03*
X37450Y35425D02*
D03*
X30450Y49425D02*
D03*
Y35425D02*
D03*
X33950Y28425D02*
D03*
X23450Y49425D02*
D03*
X26950Y14425D02*
D03*
X19950Y42425D02*
D03*
Y14425D02*
D03*
X16450Y7425D02*
D03*
X12950Y42425D02*
D03*
Y14425D02*
D03*
X9450Y7425D02*
D03*
X2450Y49425D02*
D03*
Y35425D02*
D03*
X5950Y28425D02*
D03*
X2450Y21425D02*
D03*
X5950Y14425D02*
D03*
X2450Y7425D02*
D03*
D33*
X19600Y31700D02*
D03*
X21375Y22175D02*
D03*
X31150Y16925D02*
D03*
X19925Y18925D02*
D03*
X18250Y21325D02*
D03*
X95825Y9875D02*
D03*
X16125Y31625D02*
D03*
X6350Y35750D02*
D03*
X20500Y33200D02*
D03*
X16600Y36650D02*
D03*
X20700Y46906D02*
D03*
X88240Y37920D02*
D03*
X83083Y46359D02*
D03*
X82271Y45043D02*
D03*
X52553Y19643D02*
D03*
X78107Y24723D02*
D03*
X85844Y16355D02*
D03*
X83083Y49361D02*
D03*
X45568Y19548D02*
D03*
X80493Y25231D02*
D03*
X77953Y20278D02*
D03*
X102337Y32978D02*
D03*
X79858Y41868D02*
D03*
%TF.MD5,aae010d27ceb6c80719d0c034f9999aa*%
M02*
