%TF.GenerationSoftware,Altium Limited,Altium Designer,24.7.2 (38)*%
G04 Layer_Color=32896*
%FSLAX43Y43*%
%MOMM*%
%TF.SameCoordinates,EABBE53E-55D9-4B33-9F5D-FE9000ABD613*%
%TF.FilePolarity,Positive*%
%TF.FileFunction,Legend,Bot*%
%TF.Part,Single*%
G01*
G75*
%TA.AperFunction,NonConductor*%
%ADD36C,0.200*%
%ADD37C,0.300*%
%ADD40C,0.254*%
%ADD41C,0.127*%
D36*
X87245Y53600D02*
G03*
X87245Y53600I-100J0D01*
G01*
D37*
X91720Y11890D02*
G03*
X91720Y11890I-100J0D01*
G01*
X21770D02*
G03*
X21770Y11890I-100J0D01*
G01*
D40*
X86204Y57862D02*
X86712D01*
X86458D01*
Y56592D01*
X86712Y56338D01*
X86966D01*
X87220Y56592D01*
X84680Y56338D02*
X85696D01*
X84680Y57354D01*
Y57608D01*
X84934Y57862D01*
X85442D01*
X85696Y57608D01*
X87767Y14415D02*
X88275D01*
X88021D01*
Y13145D01*
X88275Y12891D01*
X88529D01*
X88783Y13145D01*
X87259Y12891D02*
X86751D01*
X87005D01*
Y14415D01*
X87259Y14161D01*
X18323Y14415D02*
X18831D01*
X18577D01*
Y13145D01*
X18831Y12891D01*
X19085D01*
X19339Y13145D01*
X17815Y14161D02*
X17562Y14415D01*
X17054D01*
X16800Y14161D01*
Y13907D01*
X17054Y13653D01*
X17308D01*
X17054D01*
X16800Y13399D01*
Y13145D01*
X17054Y12891D01*
X17562D01*
X17815Y13145D01*
D41*
X87915Y58000D02*
X110775D01*
Y52000D02*
Y58000D01*
X87915Y52000D02*
X110775D01*
X87915D02*
Y58000D01*
X86780Y1790D02*
X112060D01*
X86780D02*
Y10890D01*
X112060D01*
Y1790D02*
Y10890D01*
X16830Y1790D02*
X42110D01*
X16830D02*
Y10890D01*
X42110D01*
Y1790D02*
Y10890D01*
%TF.MD5,ca4a6a167dbdbcb94910082dd71b82df*%
M02*
