%TF.GenerationSoftware,Altium Limited,Altium Designer,24.7.2 (38)*%
G04 Layer_Color=255*
%FSLAX43Y43*%
%MOMM*%
%TF.SameCoordinates,EABBE53E-55D9-4B33-9F5D-FE9000ABD613*%
%TF.FilePolarity,Positive*%
%TF.FileFunction,Pads,Bot*%
%TF.Part,Single*%
G01*
G75*
%TA.AperFunction,ComponentPad*%
%ADD23C,1.530*%
%ADD24R,1.530X1.530*%
%ADD25C,1.508*%
%ADD26R,1.508X1.508*%
%ADD27C,2.100*%
%ADD28C,1.800*%
%ADD29R,1.800X1.800*%
%ADD30R,2.000X2.000*%
%ADD31C,2.000*%
D23*
X99345Y56270D02*
D03*
X96805D02*
D03*
X94265D02*
D03*
X91725D02*
D03*
X101885D02*
D03*
X104425D02*
D03*
X106965D02*
D03*
X99345Y53730D02*
D03*
X96805D02*
D03*
X94265D02*
D03*
X101885D02*
D03*
X104425D02*
D03*
X106965D02*
D03*
D24*
X91725D02*
D03*
D25*
X99420Y5220D02*
D03*
Y7760D02*
D03*
X96880Y5220D02*
D03*
Y7760D02*
D03*
X94340Y5220D02*
D03*
Y7760D02*
D03*
X91800Y5220D02*
D03*
X107040D02*
D03*
Y7760D02*
D03*
X104500Y5220D02*
D03*
Y7760D02*
D03*
X101960Y5220D02*
D03*
Y7760D02*
D03*
X29470Y5220D02*
D03*
Y7760D02*
D03*
X26930Y5220D02*
D03*
Y7760D02*
D03*
X24390Y5220D02*
D03*
Y7760D02*
D03*
X21850Y5220D02*
D03*
X37090D02*
D03*
Y7760D02*
D03*
X34550Y5220D02*
D03*
Y7760D02*
D03*
X32010Y5220D02*
D03*
Y7760D02*
D03*
D26*
X91800D02*
D03*
X21850D02*
D03*
D27*
X116650Y15535D02*
D03*
Y24442D02*
D03*
Y33386D02*
D03*
Y42574D02*
D03*
X105004Y32978D02*
D03*
Y15071D02*
D03*
X24867Y33613D02*
D03*
Y29803D02*
D03*
X24894Y17103D02*
D03*
X24867Y42814D02*
D03*
X70428Y16406D02*
D03*
X72111Y37920D02*
D03*
X24894Y25893D02*
D03*
X24867Y38683D02*
D03*
D28*
X57600Y56175D02*
D03*
X55060D02*
D03*
X52520D02*
D03*
X49980D02*
D03*
X47440D02*
D03*
X44900D02*
D03*
X60140D02*
D03*
D29*
X42360D02*
D03*
D30*
X57431Y44626D02*
D03*
D31*
X63931D02*
D03*
X57431Y40126D02*
D03*
X63931D02*
D03*
%TF.MD5,cecd990ed00326339e8d72dd2c57456a*%
M02*
