%TF.GenerationSoftware,Altium Limited,Altium Designer,24.7.2 (38)*%
G04 Layer_Color=2752767*
%FSLAX43Y43*%
%MOMM*%
%TF.SameCoordinates,EABBE53E-55D9-4B33-9F5D-FE9000ABD613*%
%TF.FilePolarity,Positive*%
%TF.FileFunction,Drawing*%
%TF.Part,Single*%
G01*
G75*
%TA.AperFunction,NonConductor*%
%ADD41C,0.127*%
%ADD50C,0.169*%
D41*
X99345Y55762D02*
X99599Y56016D01*
X99853D01*
X99599Y56270D01*
X99853Y56524D01*
X99599D01*
X99345Y56778D01*
X99091Y56524D01*
X98837D01*
X99091Y56270D01*
X98837Y56016D01*
X99091D01*
X99345Y55762D01*
X96805D02*
X97059Y56016D01*
X97313D01*
X97059Y56270D01*
X97313Y56524D01*
X97059D01*
X96805Y56778D01*
X96551Y56524D01*
X96297D01*
X96551Y56270D01*
X96297Y56016D01*
X96551D01*
X96805Y55762D01*
X94265D02*
X94519Y56016D01*
X94773D01*
X94519Y56270D01*
X94773Y56524D01*
X94519D01*
X94265Y56778D01*
X94011Y56524D01*
X93757D01*
X94011Y56270D01*
X93757Y56016D01*
X94011D01*
X94265Y55762D01*
X91725D02*
X91979Y56016D01*
X92233D01*
X91979Y56270D01*
X92233Y56524D01*
X91979D01*
X91725Y56778D01*
X91471Y56524D01*
X91217D01*
X91471Y56270D01*
X91217Y56016D01*
X91471D01*
X91725Y55762D01*
X101885D02*
X102139Y56016D01*
X102393D01*
X102139Y56270D01*
X102393Y56524D01*
X102139D01*
X101885Y56778D01*
X101631Y56524D01*
X101377D01*
X101631Y56270D01*
X101377Y56016D01*
X101631D01*
X101885Y55762D01*
X104425D02*
X104679Y56016D01*
X104933D01*
X104679Y56270D01*
X104933Y56524D01*
X104679D01*
X104425Y56778D01*
X104171Y56524D01*
X103917D01*
X104171Y56270D01*
X103917Y56016D01*
X104171D01*
X104425Y55762D01*
X106965D02*
X107219Y56016D01*
X107473D01*
X107219Y56270D01*
X107473Y56524D01*
X107219D01*
X106965Y56778D01*
X106711Y56524D01*
X106457D01*
X106711Y56270D01*
X106457Y56016D01*
X106711D01*
X106965Y55762D01*
X99345Y53222D02*
X99599Y53476D01*
X99853D01*
X99599Y53730D01*
X99853Y53984D01*
X99599D01*
X99345Y54238D01*
X99091Y53984D01*
X98837D01*
X99091Y53730D01*
X98837Y53476D01*
X99091D01*
X99345Y53222D01*
X96805D02*
X97059Y53476D01*
X97313D01*
X97059Y53730D01*
X97313Y53984D01*
X97059D01*
X96805Y54238D01*
X96551Y53984D01*
X96297D01*
X96551Y53730D01*
X96297Y53476D01*
X96551D01*
X96805Y53222D01*
X94265D02*
X94519Y53476D01*
X94773D01*
X94519Y53730D01*
X94773Y53984D01*
X94519D01*
X94265Y54238D01*
X94011Y53984D01*
X93757D01*
X94011Y53730D01*
X93757Y53476D01*
X94011D01*
X94265Y53222D01*
X91725D02*
X91979Y53476D01*
X92233D01*
X91979Y53730D01*
X92233Y53984D01*
X91979D01*
X91725Y54238D01*
X91471Y53984D01*
X91217D01*
X91471Y53730D01*
X91217Y53476D01*
X91471D01*
X91725Y53222D01*
X101885D02*
X102139Y53476D01*
X102393D01*
X102139Y53730D01*
X102393Y53984D01*
X102139D01*
X101885Y54238D01*
X101631Y53984D01*
X101377D01*
X101631Y53730D01*
X101377Y53476D01*
X101631D01*
X101885Y53222D01*
X104425D02*
X104679Y53476D01*
X104933D01*
X104679Y53730D01*
X104933Y53984D01*
X104679D01*
X104425Y54238D01*
X104171Y53984D01*
X103917D01*
X104171Y53730D01*
X103917Y53476D01*
X104171D01*
X104425Y53222D01*
X106965D02*
X107219Y53476D01*
X107473D01*
X107219Y53730D01*
X107473Y53984D01*
X107219D01*
X106965Y54238D01*
X106711Y53984D01*
X106457D01*
X106711Y53730D01*
X106457Y53476D01*
X106711D01*
X106965Y53222D01*
X98912Y4712D02*
Y5728D01*
X99928D01*
Y4712D01*
X98912D01*
Y7252D02*
Y8268D01*
X99928D01*
Y7252D01*
X98912D01*
X96372Y4712D02*
Y5728D01*
X97388D01*
Y4712D01*
X96372D01*
Y7252D02*
Y8268D01*
X97388D01*
Y7252D01*
X96372D01*
X93832Y4712D02*
Y5728D01*
X94848D01*
Y4712D01*
X93832D01*
Y7252D02*
Y8268D01*
X94848D01*
Y7252D01*
X93832D01*
X91292Y4712D02*
Y5728D01*
X92308D01*
Y4712D01*
X91292D01*
Y7252D02*
Y8268D01*
X92308D01*
Y7252D01*
X91292D01*
X106532Y4712D02*
Y5728D01*
X107548D01*
Y4712D01*
X106532D01*
Y7252D02*
Y8268D01*
X107548D01*
Y7252D01*
X106532D01*
X103992Y4712D02*
Y5728D01*
X105008D01*
Y4712D01*
X103992D01*
Y7252D02*
Y8268D01*
X105008D01*
Y7252D01*
X103992D01*
X101452Y4712D02*
Y5728D01*
X102468D01*
Y4712D01*
X101452D01*
Y7252D02*
Y8268D01*
X102468D01*
Y7252D01*
X101452D01*
X28962Y4712D02*
Y5728D01*
X29978D01*
Y4712D01*
X28962D01*
Y7252D02*
Y8268D01*
X29978D01*
Y7252D01*
X28962D01*
X26422Y4712D02*
Y5728D01*
X27438D01*
Y4712D01*
X26422D01*
Y7252D02*
Y8268D01*
X27438D01*
Y7252D01*
X26422D01*
X23882Y4712D02*
Y5728D01*
X24898D01*
Y4712D01*
X23882D01*
Y7252D02*
Y8268D01*
X24898D01*
Y7252D01*
X23882D01*
X21342Y4712D02*
Y5728D01*
X22358D01*
Y4712D01*
X21342D01*
Y7252D02*
Y8268D01*
X22358D01*
Y7252D01*
X21342D01*
X36582Y4712D02*
Y5728D01*
X37598D01*
Y4712D01*
X36582D01*
Y7252D02*
Y8268D01*
X37598D01*
Y7252D01*
X36582D01*
X34042Y4712D02*
Y5728D01*
X35058D01*
Y4712D01*
X34042D01*
Y7252D02*
Y8268D01*
X35058D01*
Y7252D01*
X34042D01*
X31502Y4712D02*
Y5728D01*
X32518D01*
Y4712D01*
X31502D01*
Y7252D02*
Y8268D01*
X32518D01*
Y7252D01*
X31502D01*
X116142Y15027D02*
X116396Y15535D01*
X116142Y16043D01*
X116650Y15789D01*
X117158Y16043D01*
X116904Y15535D01*
X117158Y15027D01*
X116650Y15281D01*
X116142Y15027D01*
Y23934D02*
X116396Y24442D01*
X116142Y24950D01*
X116650Y24696D01*
X117158Y24950D01*
X116904Y24442D01*
X117158Y23934D01*
X116650Y24188D01*
X116142Y23934D01*
Y32878D02*
X116396Y33386D01*
X116142Y33894D01*
X116650Y33640D01*
X117158Y33894D01*
X116904Y33386D01*
X117158Y32878D01*
X116650Y33132D01*
X116142Y32878D01*
Y42066D02*
X116396Y42574D01*
X116142Y43082D01*
X116650Y42828D01*
X117158Y43082D01*
X116904Y42574D01*
X117158Y42066D01*
X116650Y42320D01*
X116142Y42066D01*
X104496Y32470D02*
X104750Y32978D01*
X104496Y33486D01*
X105004Y33232D01*
X105512Y33486D01*
X105258Y32978D01*
X105512Y32470D01*
X105004Y32724D01*
X104496Y32470D01*
Y14563D02*
X104750Y15071D01*
X104496Y15579D01*
X105004Y15325D01*
X105512Y15579D01*
X105258Y15071D01*
X105512Y14563D01*
X105004Y14817D01*
X104496Y14563D01*
X24359Y33105D02*
X24613Y33613D01*
X24359Y34121D01*
X24867Y33867D01*
X25375Y34121D01*
X25121Y33613D01*
X25375Y33105D01*
X24867Y33359D01*
X24359Y33105D01*
Y29295D02*
X24613Y29803D01*
X24359Y30311D01*
X24867Y30057D01*
X25375Y30311D01*
X25121Y29803D01*
X25375Y29295D01*
X24867Y29549D01*
X24359Y29295D01*
X57092Y55667D02*
Y56683D01*
X58108D01*
Y55667D01*
X57092D01*
X54552D02*
Y56683D01*
X55568D01*
Y55667D01*
X54552D01*
X52012D02*
Y56683D01*
X53028D01*
Y55667D01*
X52012D01*
X49472D02*
Y56683D01*
X50488D01*
Y55667D01*
X49472D01*
X46932D02*
Y56683D01*
X47948D01*
Y55667D01*
X46932D01*
X41852D02*
Y56683D01*
X42868D01*
Y55667D01*
X41852D01*
X44392D02*
Y56683D01*
X45408D01*
Y55667D01*
X44392D01*
X59632D02*
Y56683D01*
X60648D01*
Y55667D01*
X59632D01*
X24386Y16595D02*
X24640Y17103D01*
X24386Y17611D01*
X24894Y17357D01*
X25402Y17611D01*
X25148Y17103D01*
X25402Y16595D01*
X24894Y16849D01*
X24386Y16595D01*
X56923Y44118D02*
Y45134D01*
X57939D01*
Y44118D01*
X56923D01*
X63423D02*
Y45134D01*
X64439D01*
Y44118D01*
X63423D01*
X56923Y39618D02*
Y40634D01*
X57939D01*
Y39618D01*
X56923D01*
X63423D02*
Y40634D01*
X64439D01*
Y39618D01*
X63423D01*
X24359Y42306D02*
X24613Y42814D01*
X24359Y43322D01*
X24867Y43068D01*
X25375Y43322D01*
X25121Y42814D01*
X25375Y42306D01*
X24867Y42560D01*
X24359Y42306D01*
X69920Y15898D02*
X70174Y16406D01*
X69920Y16914D01*
X70428Y16660D01*
X70936Y16914D01*
X70682Y16406D01*
X70936Y15898D01*
X70428Y16152D01*
X69920Y15898D01*
X71603Y37412D02*
X71857Y37920D01*
X71603Y38428D01*
X72111Y38174D01*
X72619Y38428D01*
X72365Y37920D01*
X72619Y37412D01*
X72111Y37666D01*
X71603Y37412D01*
X24386Y25385D02*
X24640Y25893D01*
X24386Y26401D01*
X24894Y26147D01*
X25402Y26401D01*
X25148Y25893D01*
X25402Y25385D01*
X24894Y25639D01*
X24386Y25385D01*
X24359Y38175D02*
X24613Y38683D01*
X24359Y39191D01*
X24867Y38937D01*
X25375Y39191D01*
X25121Y38683D01*
X25375Y38175D01*
X24867Y38429D01*
X24359Y38175D01*
X19600Y31192D02*
X19092Y32208D01*
X20108D01*
X19600Y31192D01*
X21375Y21667D02*
X20867Y22683D01*
X21883D01*
X21375Y21667D01*
X31150Y16417D02*
X30642Y17433D01*
X31658D01*
X31150Y16417D01*
X19925Y18417D02*
X19417Y19433D01*
X20433D01*
X19925Y18417D01*
X18250Y20817D02*
X17742Y21833D01*
X18758D01*
X18250Y20817D01*
X95825Y9367D02*
X95317Y10383D01*
X96333D01*
X95825Y9367D01*
X16125Y31117D02*
X15617Y32133D01*
X16633D01*
X16125Y31117D01*
X6350Y35242D02*
X5842Y36258D01*
X6858D01*
X6350Y35242D01*
X20500Y32692D02*
X19992Y33708D01*
X21008D01*
X20500Y32692D01*
X16600Y36142D02*
X16092Y37158D01*
X17108D01*
X16600Y36142D01*
X20700Y46398D02*
X20192Y47414D01*
X21208D01*
X20700Y46398D01*
X88240Y37412D02*
X87732Y38428D01*
X88748D01*
X88240Y37412D01*
X83083Y45851D02*
X82575Y46867D01*
X83591D01*
X83083Y45851D01*
X82271Y44535D02*
X81763Y45551D01*
X82779D01*
X82271Y44535D01*
X52553Y19135D02*
X52045Y20151D01*
X53061D01*
X52553Y19135D01*
X78107Y24215D02*
X77599Y25231D01*
X78615D01*
X78107Y24215D01*
X85844Y15847D02*
X85336Y16863D01*
X86352D01*
X85844Y15847D01*
X83083Y48853D02*
X82575Y49869D01*
X83591D01*
X83083Y48853D01*
X45568Y19040D02*
X45060Y20056D01*
X46076D01*
X45568Y19040D01*
X80493Y24723D02*
X79985Y25739D01*
X81001D01*
X80493Y24723D01*
X77953Y19770D02*
X77445Y20786D01*
X78461D01*
X77953Y19770D01*
X102337Y32470D02*
X101829Y33486D01*
X102845D01*
X102337Y32470D01*
X79858Y41360D02*
X79350Y42376D01*
X80366D01*
X79858Y41360D01*
D50*
X114958Y49425D02*
G03*
X114958Y49425I-508J0D01*
G01*
Y35425D02*
G03*
X114958Y35425I-508J0D01*
G01*
X118458Y28425D02*
G03*
X118458Y28425I-508J0D01*
G01*
X114958Y21425D02*
G03*
X114958Y21425I-508J0D01*
G01*
Y7425D02*
G03*
X114958Y7425I-508J0D01*
G01*
X107958Y49425D02*
G03*
X107958Y49425I-508J0D01*
G01*
X111458Y42425D02*
G03*
X111458Y42425I-508J0D01*
G01*
X107958Y35425D02*
G03*
X107958Y35425I-508J0D01*
G01*
X111458Y28425D02*
G03*
X111458Y28425I-508J0D01*
G01*
X107958Y21425D02*
G03*
X107958Y21425I-508J0D01*
G01*
X111458Y14425D02*
G03*
X111458Y14425I-508J0D01*
G01*
X100958Y49425D02*
G03*
X100958Y49425I-508J0D01*
G01*
X97458Y28425D02*
G03*
X97458Y28425I-508J0D01*
G01*
X90458Y42425D02*
G03*
X90458Y42425I-508J0D01*
G01*
Y28425D02*
G03*
X90458Y28425I-508J0D01*
G01*
Y14425D02*
G03*
X90458Y14425I-508J0D01*
G01*
X83458Y28425D02*
G03*
X83458Y28425I-508J0D01*
G01*
X72958Y49425D02*
G03*
X72958Y49425I-508J0D01*
G01*
X76458Y42425D02*
G03*
X76458Y42425I-508J0D01*
G01*
X72958Y35425D02*
G03*
X72958Y35425I-508J0D01*
G01*
X65958Y49425D02*
G03*
X65958Y49425I-508J0D01*
G01*
X69458Y42425D02*
G03*
X69458Y42425I-508J0D01*
G01*
X65958Y35425D02*
G03*
X65958Y35425I-508J0D01*
G01*
X69458Y28425D02*
G03*
X69458Y28425I-508J0D01*
G01*
X65958Y21425D02*
G03*
X65958Y21425I-508J0D01*
G01*
X58958Y49425D02*
G03*
X58958Y49425I-508J0D01*
G01*
X62458Y42425D02*
G03*
X62458Y42425I-508J0D01*
G01*
X51958Y35425D02*
G03*
X51958Y35425I-508J0D01*
G01*
X55458Y28425D02*
G03*
X55458Y28425I-508J0D01*
G01*
X51958Y21425D02*
G03*
X51958Y21425I-508J0D01*
G01*
X48458Y14425D02*
G03*
X48458Y14425I-508J0D01*
G01*
X37958Y49425D02*
G03*
X37958Y49425I-508J0D01*
G01*
X41458Y42425D02*
G03*
X41458Y42425I-508J0D01*
G01*
X37958Y35425D02*
G03*
X37958Y35425I-508J0D01*
G01*
X30958Y49425D02*
G03*
X30958Y49425I-508J0D01*
G01*
Y35425D02*
G03*
X30958Y35425I-508J0D01*
G01*
X34458Y28425D02*
G03*
X34458Y28425I-508J0D01*
G01*
X23958Y49425D02*
G03*
X23958Y49425I-508J0D01*
G01*
X27458Y14425D02*
G03*
X27458Y14425I-508J0D01*
G01*
X20458Y42425D02*
G03*
X20458Y42425I-508J0D01*
G01*
Y14425D02*
G03*
X20458Y14425I-508J0D01*
G01*
X16958Y7425D02*
G03*
X16958Y7425I-508J0D01*
G01*
X13458Y42425D02*
G03*
X13458Y42425I-508J0D01*
G01*
Y14425D02*
G03*
X13458Y14425I-508J0D01*
G01*
X9958Y7425D02*
G03*
X9958Y7425I-508J0D01*
G01*
X2958Y49425D02*
G03*
X2958Y49425I-508J0D01*
G01*
Y35425D02*
G03*
X2958Y35425I-508J0D01*
G01*
X6458Y28425D02*
G03*
X6458Y28425I-508J0D01*
G01*
X2958Y21425D02*
G03*
X2958Y21425I-508J0D01*
G01*
X6458Y14425D02*
G03*
X6458Y14425I-508J0D01*
G01*
X2958Y7425D02*
G03*
X2958Y7425I-508J0D01*
G01*
%TF.MD5,0b6196725391f72269d8c561d7584641*%
M02*
