%TF.GenerationSoftware,Altium Limited,Altium Designer,24.7.2 (38)*%
G04 Layer_Color=16711935*
%FSLAX43Y43*%
%MOMM*%
%TF.SameCoordinates,EABBE53E-55D9-4B33-9F5D-FE9000ABD613*%
%TF.FilePolarity,Negative*%
%TF.FileFunction,Soldermask,Bot*%
%TF.Part,Single*%
G01*
G75*
%TA.AperFunction,ComponentPad*%
%ADD23C,1.530*%
%ADD24R,1.530X1.530*%
%ADD25C,1.508*%
%ADD26R,1.508X1.508*%
%ADD27C,2.100*%
%ADD28C,1.800*%
%ADD29R,1.800X1.800*%
%ADD30R,2.000X2.000*%
%ADD31C,2.000*%
%TA.AperFunction,ViaPad*%
%ADD32C,1.270*%
%ADD33C,0.800*%
D23*
X99345Y56270D02*
D03*
X96805D02*
D03*
X94265D02*
D03*
X91725D02*
D03*
X101885D02*
D03*
X104425D02*
D03*
X106965D02*
D03*
X99345Y53730D02*
D03*
X96805D02*
D03*
X94265D02*
D03*
X101885D02*
D03*
X104425D02*
D03*
X106965D02*
D03*
D24*
X91725D02*
D03*
D25*
X99420Y5220D02*
D03*
Y7760D02*
D03*
X96880Y5220D02*
D03*
Y7760D02*
D03*
X94340Y5220D02*
D03*
Y7760D02*
D03*
X91800Y5220D02*
D03*
X107040D02*
D03*
Y7760D02*
D03*
X104500Y5220D02*
D03*
Y7760D02*
D03*
X101960Y5220D02*
D03*
Y7760D02*
D03*
X29470Y5220D02*
D03*
Y7760D02*
D03*
X26930Y5220D02*
D03*
Y7760D02*
D03*
X24390Y5220D02*
D03*
Y7760D02*
D03*
X21850Y5220D02*
D03*
X37090D02*
D03*
Y7760D02*
D03*
X34550Y5220D02*
D03*
Y7760D02*
D03*
X32010Y5220D02*
D03*
Y7760D02*
D03*
D26*
X91800D02*
D03*
X21850D02*
D03*
D27*
X116650Y15535D02*
D03*
Y24442D02*
D03*
Y33386D02*
D03*
Y42574D02*
D03*
X105004Y32978D02*
D03*
Y15071D02*
D03*
X24867Y33613D02*
D03*
Y29803D02*
D03*
X24894Y17103D02*
D03*
X24867Y42814D02*
D03*
X70428Y16406D02*
D03*
X72111Y37920D02*
D03*
X24894Y25893D02*
D03*
X24867Y38683D02*
D03*
D28*
X57600Y56175D02*
D03*
X55060D02*
D03*
X52520D02*
D03*
X49980D02*
D03*
X47440D02*
D03*
X44900D02*
D03*
X60140D02*
D03*
D29*
X42360D02*
D03*
D30*
X57431Y44626D02*
D03*
D31*
X63931D02*
D03*
X57431Y40126D02*
D03*
X63931D02*
D03*
D32*
X114450Y49425D02*
D03*
Y35425D02*
D03*
X117950Y28425D02*
D03*
X114450Y21425D02*
D03*
Y7425D02*
D03*
X107450Y49425D02*
D03*
X110950Y42425D02*
D03*
X107450Y35425D02*
D03*
X110950Y28425D02*
D03*
X107450Y21425D02*
D03*
X110950Y14425D02*
D03*
X100450Y49425D02*
D03*
X96950Y28425D02*
D03*
X89950Y42425D02*
D03*
Y28425D02*
D03*
Y14425D02*
D03*
X82950Y28425D02*
D03*
X72450Y49425D02*
D03*
X75950Y42425D02*
D03*
X72450Y35425D02*
D03*
X65450Y49425D02*
D03*
X68950Y42425D02*
D03*
X65450Y35425D02*
D03*
X68950Y28425D02*
D03*
X65450Y21425D02*
D03*
X58450Y49425D02*
D03*
X61950Y42425D02*
D03*
X51450Y35425D02*
D03*
X54950Y28425D02*
D03*
X51450Y21425D02*
D03*
X47950Y14425D02*
D03*
X37450Y49425D02*
D03*
X40950Y42425D02*
D03*
X37450Y35425D02*
D03*
X30450Y49425D02*
D03*
Y35425D02*
D03*
X33950Y28425D02*
D03*
X23450Y49425D02*
D03*
X26950Y14425D02*
D03*
X19950Y42425D02*
D03*
Y14425D02*
D03*
X16450Y7425D02*
D03*
X12950Y42425D02*
D03*
Y14425D02*
D03*
X9450Y7425D02*
D03*
X2450Y49425D02*
D03*
Y35425D02*
D03*
X5950Y28425D02*
D03*
X2450Y21425D02*
D03*
X5950Y14425D02*
D03*
X2450Y7425D02*
D03*
D33*
X19600Y31700D02*
D03*
X21375Y22175D02*
D03*
X31150Y16925D02*
D03*
X19925Y18925D02*
D03*
X18250Y21325D02*
D03*
X95825Y9875D02*
D03*
X16125Y31625D02*
D03*
X6350Y35750D02*
D03*
X20500Y33200D02*
D03*
X16600Y36650D02*
D03*
X20700Y46906D02*
D03*
X88240Y37920D02*
D03*
X83083Y46359D02*
D03*
X82271Y45043D02*
D03*
X52553Y19643D02*
D03*
X78107Y24723D02*
D03*
X85844Y16355D02*
D03*
X83083Y49361D02*
D03*
X45568Y19548D02*
D03*
X80493Y25231D02*
D03*
X77953Y20278D02*
D03*
X102337Y32978D02*
D03*
X79858Y41868D02*
D03*
%TF.MD5,95c69a987758db6bfe859c5403bf38de*%
M02*
