M48
;Layer_Color=9474304
;FILE_FORMAT=4:3
METRIC,LZ
;TYPE=PLATED
T01F00S00C0.400
T02F00S00C0.711
T03F00S00C1.000
T04F00S00C1.020
T05F00S00C1.600
%
T01
X0085844Y0016355
X0095825Y0009875
X0077953Y0020278
X0078107Y0024723
X0080493Y0025231
X0052553Y0019643
X0045568Y0019548
X003115Y0016925
X0019925Y0018925
X001825Y0021325
X0021375Y0022175
X00196Y00317
X00205Y00332
X0016125Y0031625
X00166Y003665
X000635Y003575
X00207Y0046906
X0079858Y0041868
X0082271Y0045043
X0083083Y0046359
Y0049361
X008824Y003792
X0102337Y0032978
T02
X008995Y0014425
Y0028425
X009695
X011095
X011795
X011445Y0021425
X010745
X011095Y0014425
X011445Y0007425
X008295Y0028425
X006895
X006545Y0021425
X005145
X005495Y0028425
X004795Y0014425
X002695
X001995
X001295
X000595
X000945Y0007425
X001645
X000595Y0028425
X003395
X000245Y0021425
Y0007425
Y0035425
Y0049425
X001295Y0042425
X001995
X002345Y0049425
X003045
X003745
X004095Y0042425
X003745Y0035425
X003045
X005145
X006545
X007245
X007595Y0042425
X006895
X006195
X006545Y0049425
X007245
X005845
X008995Y0042425
X010045Y0049425
X010745
X011445
X011095Y0042425
X011445Y0035425
X010745
T03
X00918Y000522
X009434
X009688
X009942
Y000776
X009688
X009434
X00918
X010196
X01045
X010704
Y000522
X01045
X010196
X003709
Y000776
X003455
Y000522
X003201
X002947
Y000776
X002693
Y000522
X002439
Y000776
X002185
Y000522
X003201Y000776
X0057431Y0040126
Y0044626
X0063931
Y0040126
X006014Y0056175
X00576
X005506
X005252
X004998
X004744
X00449
X004236
T04
X0091725Y005373
Y005627
X0094265
X0096805
X0099345
X0101885
X0104425
X0106965
Y005373
X0104425
X0101885
X0099345
X0096805
X0094265
T05
X0105004Y0015071
X011665Y0015535
Y0024442
X0070428Y0016406
X0024894Y0017103
Y0025893
X0024867Y0029803
Y0033613
Y0038683
Y0042814
X0072111Y003792
X0105004Y0032978
X011665Y0033386
Y0042574
M30
