%TF.GenerationSoftware,Altium Limited,Altium Designer,24.7.2 (38)*%
G04 Layer_Color=128*
%FSLAX43Y43*%
%MOMM*%
%TF.SameCoordinates,EABBE53E-55D9-4B33-9F5D-FE9000ABD613*%
%TF.FilePolarity,Positive*%
%TF.FileFunction,Drillmap*%
%TF.Part,Single*%
G01*
G75*
%TA.AperFunction,NonConductor*%
%ADD41C,0.127*%
D41*
X98835Y56270D02*
X99855D01*
X99345Y55760D02*
Y56780D01*
X96295Y56270D02*
X97315D01*
X96805Y55760D02*
Y56780D01*
X93755Y56270D02*
X94775D01*
X94265Y55760D02*
Y56780D01*
X91215Y56270D02*
X92235D01*
X91725Y55760D02*
Y56780D01*
X101375Y56270D02*
X102395D01*
X101885Y55760D02*
Y56780D01*
X103915Y56270D02*
X104935D01*
X104425Y55760D02*
Y56780D01*
X106455Y56270D02*
X107475D01*
X106965Y55760D02*
Y56780D01*
X98835Y53730D02*
X99855D01*
X99345Y53220D02*
Y54240D01*
X96295Y53730D02*
X97315D01*
X96805Y53220D02*
Y54240D01*
X93755Y53730D02*
X94775D01*
X94265Y53220D02*
Y54240D01*
X91215Y53730D02*
X92235D01*
X91725Y53220D02*
Y54240D01*
X101375Y53730D02*
X102395D01*
X101885Y53220D02*
Y54240D01*
X103915Y53730D02*
X104935D01*
X104425Y53220D02*
Y54240D01*
X106455Y53730D02*
X107475D01*
X106965Y53220D02*
Y54240D01*
X98920Y5220D02*
X99920D01*
X99420Y4720D02*
Y5720D01*
X98920Y7760D02*
X99920D01*
X99420Y7260D02*
Y8260D01*
X96380Y5220D02*
X97380D01*
X96880Y4720D02*
Y5720D01*
X96380Y7760D02*
X97380D01*
X96880Y7260D02*
Y8260D01*
X93840Y5220D02*
X94840D01*
X94340Y4720D02*
Y5720D01*
X93840Y7760D02*
X94840D01*
X94340Y7260D02*
Y8260D01*
X91300Y5220D02*
X92300D01*
X91800Y4720D02*
Y5720D01*
X91300Y7760D02*
X92300D01*
X91800Y7260D02*
Y8260D01*
X106540Y5220D02*
X107540D01*
X107040Y4720D02*
Y5720D01*
X106540Y7760D02*
X107540D01*
X107040Y7260D02*
Y8260D01*
X104000Y5220D02*
X105000D01*
X104500Y4720D02*
Y5720D01*
X104000Y7760D02*
X105000D01*
X104500Y7260D02*
Y8260D01*
X101460Y5220D02*
X102460D01*
X101960Y4720D02*
Y5720D01*
X101460Y7760D02*
X102460D01*
X101960Y7260D02*
Y8260D01*
X28970Y5220D02*
X29970D01*
X29470Y4720D02*
Y5720D01*
X28970Y7760D02*
X29970D01*
X29470Y7260D02*
Y8260D01*
X26430Y5220D02*
X27430D01*
X26930Y4720D02*
Y5720D01*
X26430Y7760D02*
X27430D01*
X26930Y7260D02*
Y8260D01*
X23890Y5220D02*
X24890D01*
X24390Y4720D02*
Y5720D01*
X23890Y7760D02*
X24890D01*
X24390Y7260D02*
Y8260D01*
X21350Y5220D02*
X22350D01*
X21850Y4720D02*
Y5720D01*
X21350Y7760D02*
X22350D01*
X21850Y7260D02*
Y8260D01*
X36590Y5220D02*
X37590D01*
X37090Y4720D02*
Y5720D01*
X36590Y7760D02*
X37590D01*
X37090Y7260D02*
Y8260D01*
X34050Y5220D02*
X35050D01*
X34550Y4720D02*
Y5720D01*
X34050Y7760D02*
X35050D01*
X34550Y7260D02*
Y8260D01*
X31510Y5220D02*
X32510D01*
X32010Y4720D02*
Y5720D01*
X31510Y7760D02*
X32510D01*
X32010Y7260D02*
Y8260D01*
X115850Y15535D02*
X117450D01*
X116650Y14735D02*
Y16335D01*
X115850Y24442D02*
X117450D01*
X116650Y23642D02*
Y25242D01*
X115850Y33386D02*
X117450D01*
X116650Y32586D02*
Y34186D01*
X115850Y42574D02*
X117450D01*
X116650Y41774D02*
Y43374D01*
X104204Y32978D02*
X105804D01*
X105004Y32178D02*
Y33778D01*
X104204Y15071D02*
X105804D01*
X105004Y14271D02*
Y15871D01*
X24067Y33613D02*
X25667D01*
X24867Y32813D02*
Y34413D01*
X24067Y29803D02*
X25667D01*
X24867Y29003D02*
Y30603D01*
X57100Y56175D02*
X58100D01*
X57600Y55675D02*
Y56675D01*
X54560Y56175D02*
X55560D01*
X55060Y55675D02*
Y56675D01*
X52020Y56175D02*
X53020D01*
X52520Y55675D02*
Y56675D01*
X49480Y56175D02*
X50480D01*
X49980Y55675D02*
Y56675D01*
X46940Y56175D02*
X47940D01*
X47440Y55675D02*
Y56675D01*
X41860Y56175D02*
X42860D01*
X42360Y55675D02*
Y56675D01*
X44400Y56175D02*
X45400D01*
X44900Y55675D02*
Y56675D01*
X59640Y56175D02*
X60640D01*
X60140Y55675D02*
Y56675D01*
X24094Y17103D02*
X25694D01*
X24894Y16303D02*
Y17903D01*
X56931Y44626D02*
X57931D01*
X57431Y44126D02*
Y45126D01*
X63431Y44626D02*
X64431D01*
X63931Y44126D02*
Y45126D01*
X56931Y40126D02*
X57931D01*
X57431Y39626D02*
Y40626D01*
X63431Y40126D02*
X64431D01*
X63931Y39626D02*
Y40626D01*
X24067Y42814D02*
X25667D01*
X24867Y42014D02*
Y43614D01*
X69628Y16406D02*
X71228D01*
X70428Y15606D02*
Y17206D01*
X71311Y37920D02*
X72911D01*
X72111Y37120D02*
Y38720D01*
X24094Y25893D02*
X25694D01*
X24894Y25093D02*
Y26693D01*
X24067Y38683D02*
X25667D01*
X24867Y37883D02*
Y39483D01*
X114094Y49425D02*
X114806D01*
X114450Y49069D02*
Y49781D01*
X114094Y35425D02*
X114806D01*
X114450Y35069D02*
Y35781D01*
X117594Y28425D02*
X118306D01*
X117950Y28069D02*
Y28781D01*
X114094Y21425D02*
X114806D01*
X114450Y21069D02*
Y21781D01*
X114094Y7425D02*
X114806D01*
X114450Y7069D02*
Y7781D01*
X107094Y49425D02*
X107806D01*
X107450Y49069D02*
Y49781D01*
X110594Y42425D02*
X111306D01*
X110950Y42069D02*
Y42781D01*
X107094Y35425D02*
X107806D01*
X107450Y35069D02*
Y35781D01*
X110594Y28425D02*
X111306D01*
X110950Y28069D02*
Y28781D01*
X107094Y21425D02*
X107806D01*
X107450Y21069D02*
Y21781D01*
X110594Y14425D02*
X111306D01*
X110950Y14069D02*
Y14781D01*
X100094Y49425D02*
X100806D01*
X100450Y49069D02*
Y49781D01*
X96594Y28425D02*
X97306D01*
X96950Y28069D02*
Y28781D01*
X89594Y42425D02*
X90306D01*
X89950Y42069D02*
Y42781D01*
X89594Y28425D02*
X90306D01*
X89950Y28069D02*
Y28781D01*
X89594Y14425D02*
X90306D01*
X89950Y14069D02*
Y14781D01*
X82594Y28425D02*
X83306D01*
X82950Y28069D02*
Y28781D01*
X72094Y49425D02*
X72806D01*
X72450Y49069D02*
Y49781D01*
X75594Y42425D02*
X76306D01*
X75950Y42069D02*
Y42781D01*
X72094Y35425D02*
X72806D01*
X72450Y35069D02*
Y35781D01*
X65094Y49425D02*
X65806D01*
X65450Y49069D02*
Y49781D01*
X68594Y42425D02*
X69306D01*
X68950Y42069D02*
Y42781D01*
X65094Y35425D02*
X65806D01*
X65450Y35069D02*
Y35781D01*
X68594Y28425D02*
X69306D01*
X68950Y28069D02*
Y28781D01*
X65094Y21425D02*
X65806D01*
X65450Y21069D02*
Y21781D01*
X58094Y49425D02*
X58806D01*
X58450Y49069D02*
Y49781D01*
X61594Y42425D02*
X62306D01*
X61950Y42069D02*
Y42781D01*
X51094Y35425D02*
X51806D01*
X51450Y35069D02*
Y35781D01*
X54594Y28425D02*
X55306D01*
X54950Y28069D02*
Y28781D01*
X51094Y21425D02*
X51806D01*
X51450Y21069D02*
Y21781D01*
X47594Y14425D02*
X48306D01*
X47950Y14069D02*
Y14781D01*
X37094Y49425D02*
X37806D01*
X37450Y49069D02*
Y49781D01*
X40594Y42425D02*
X41306D01*
X40950Y42069D02*
Y42781D01*
X37094Y35425D02*
X37806D01*
X37450Y35069D02*
Y35781D01*
X30094Y49425D02*
X30806D01*
X30450Y49069D02*
Y49781D01*
X30094Y35425D02*
X30806D01*
X30450Y35069D02*
Y35781D01*
X33594Y28425D02*
X34306D01*
X33950Y28069D02*
Y28781D01*
X23094Y49425D02*
X23806D01*
X23450Y49069D02*
Y49781D01*
X26594Y14425D02*
X27306D01*
X26950Y14069D02*
Y14781D01*
X19594Y42425D02*
X20306D01*
X19950Y42069D02*
Y42781D01*
X19594Y14425D02*
X20306D01*
X19950Y14069D02*
Y14781D01*
X16094Y7425D02*
X16806D01*
X16450Y7069D02*
Y7781D01*
X12594Y42425D02*
X13306D01*
X12950Y42069D02*
Y42781D01*
X12594Y14425D02*
X13306D01*
X12950Y14069D02*
Y14781D01*
X9094Y7425D02*
X9806D01*
X9450Y7069D02*
Y7781D01*
X2094Y49425D02*
X2806D01*
X2450Y49069D02*
Y49781D01*
X2094Y35425D02*
X2806D01*
X2450Y35069D02*
Y35781D01*
X5594Y28425D02*
X6306D01*
X5950Y28069D02*
Y28781D01*
X2094Y21425D02*
X2806D01*
X2450Y21069D02*
Y21781D01*
X5594Y14425D02*
X6306D01*
X5950Y14069D02*
Y14781D01*
X2094Y7425D02*
X2806D01*
X2450Y7069D02*
Y7781D01*
X19400Y31700D02*
X19800D01*
X19600Y31500D02*
Y31900D01*
X21175Y22175D02*
X21575D01*
X21375Y21975D02*
Y22375D01*
X30950Y16925D02*
X31350D01*
X31150Y16725D02*
Y17125D01*
X19725Y18925D02*
X20125D01*
X19925Y18725D02*
Y19125D01*
X18050Y21325D02*
X18450D01*
X18250Y21125D02*
Y21525D01*
X95625Y9875D02*
X96025D01*
X95825Y9675D02*
Y10075D01*
X15925Y31625D02*
X16325D01*
X16125Y31425D02*
Y31825D01*
X6150Y35750D02*
X6550D01*
X6350Y35550D02*
Y35950D01*
X20300Y33200D02*
X20700D01*
X20500Y33000D02*
Y33400D01*
X16400Y36650D02*
X16800D01*
X16600Y36450D02*
Y36850D01*
X20500Y46906D02*
X20900D01*
X20700Y46706D02*
Y47106D01*
X88040Y37920D02*
X88440D01*
X88240Y37720D02*
Y38120D01*
X82883Y46359D02*
X83283D01*
X83083Y46159D02*
Y46559D01*
X82071Y45043D02*
X82471D01*
X82271Y44843D02*
Y45243D01*
X52353Y19643D02*
X52753D01*
X52553Y19443D02*
Y19843D01*
X77907Y24723D02*
X78307D01*
X78107Y24523D02*
Y24923D01*
X85644Y16355D02*
X86044D01*
X85844Y16155D02*
Y16555D01*
X82883Y49361D02*
X83283D01*
X83083Y49161D02*
Y49561D01*
X45368Y19548D02*
X45768D01*
X45568Y19348D02*
Y19748D01*
X80293Y25231D02*
X80693D01*
X80493Y25031D02*
Y25431D01*
X77753Y20278D02*
X78153D01*
X77953Y20078D02*
Y20478D01*
X102137Y32978D02*
X102537D01*
X102337Y32778D02*
Y33178D01*
X79658Y41868D02*
X80058D01*
X79858Y41668D02*
Y42068D01*
%TF.MD5,a8cb4c75d5fa6686862e74d3eea7c286*%
M02*
